<svg xmlns="http://www.w3.org/2000/svg" width="38" height="35" viewBox="0 0 38 35"><g><g><path fill="#fff" d="M30.945 2.949h4.313c1.207 0 2.185.978 2.185 2.185v4.313a2.185 2.185 0 0 1-2.185 2.185h-4.313a2.185 2.185 0 0 1-2.185-2.185V5.134c0-1.207.978-2.185 2.185-2.185z"/></g><g><path fill="#fff" d="M25.12 13.043h2.645c1.09 0 1.973.883 1.973 1.972v2.645c0 1.089-.884 1.972-1.973 1.972h-2.644a1.972 1.972 0 0 1-1.973-1.972v-2.645c0-1.089.884-1.972 1.973-1.972z"/></g><g><path fill="#fff" d="M11.527 30.106v.886a3.542 3.542 0 0 1-3.542 3.542l-.194.001H3.304l.238-.001a3.542 3.542 0 0 1 0-7.084H11.527z"/></g><g><path fill="#c9a4ff" d="M.03 30.992a3.542 3.542 0 0 1 3.543-3.542h11.563a3.542 3.542 0 0 0 3.542-3.542V19.48c0-1.956-1.586-3.541-3.336-3.541H3.778c-2.161 0-3.747-1.586-3.747-3.542v.013z"/></g><g><path fill="#fff" d="M19.48 0H3.574A3.542 3.542 0 0 0 .03 3.542v8.855a3.542 3.542 0 0 0 3.542 3.542h7.969v-3.543c0-.488.396-.885.886-.885l7.053.005v-.005a3.542 3.542 0 0 0 3.542-3.542V3.542A3.542 3.542 0 0 0 19.48 0z"/></g></g></svg>